<?xml version="1.0" encoding="utf-8"?>
<!-- Generator: Adobe Illustrator 24.1.0, SVG Export Plug-In . SVG Version: 6.00 Build 0)  -->
<svg version="1.1" id="Layer_1" xmlns="http://www.w3.org/2000/svg" xmlns:xlink="http://www.w3.org/1999/xlink" x="0px" y="0px"
	 viewBox="0 0 60 60" style="enable-background:new 0 0 60 60;" xml:space="preserve">
<style type="text/css">
	.st0{fill:#FFFFFF;}
	.st1{fill:#53C1DE;}
</style>
<g>
	<path class="st0" d="M4.8,29.9c0,3.8,3.7,7.4,9.6,9.4c-1.2,5.9-0.2,10.6,3,12.5c3.3,1.9,8.2,0.6,12.9-3.5c4.5,3.9,9.1,5.4,12.3,3.6
		c3.3-1.9,4.3-7,3.1-13c6.1-2,9.5-5,9.5-8.9c0-3.7-3.7-6.9-9.5-8.9c1.3-6.3,0.2-11-3.1-12.9c-3.2-1.9-7.9-0.2-12.5,3.8
		c-4.8-4.3-9.4-5.6-12.7-3.6c-3.2,1.9-4.1,6.7-3,12.7C8.7,22.9,4.8,26.2,4.8,29.9z"/>
	<path class="st1" d="M44.5,23c-0.5-0.2-0.9-0.3-1.4-0.5c0.1-0.3,0.2-0.7,0.2-1c1.1-5.3,0.4-9.6-2.1-11c-2.3-1.3-6.2,0.1-10,3.4
		c-0.4,0.3-0.7,0.7-1.1,1c-0.2-0.2-0.5-0.5-0.7-0.7c-4-3.6-8.1-5.1-10.5-3.7c-2.3,1.4-3,5.4-2,10.4c0.1,0.5,0.2,1,0.3,1.5
		c-0.6,0.2-1.1,0.3-1.7,0.5c-4.7,1.7-7.8,4.2-7.8,6.9c0,2.8,3.2,5.6,8.2,7.2c0.4,0.1,0.8,0.3,1.2,0.4c-0.1,0.5-0.3,1.1-0.4,1.6
		c-0.9,4.9-0.2,8.8,2.1,10.2c2.4,1.4,6.4,0,10.4-3.5c0.3-0.3,0.6-0.6,0.9-0.9c0.4,0.4,0.8,0.8,1.2,1.1c3.8,3.3,7.6,4.6,9.9,3.2
		c2.4-1.4,3.2-5.6,2.2-10.7c-0.1-0.4-0.2-0.8-0.3-1.2c0.3-0.1,0.6-0.2,0.8-0.3c5.1-1.7,8.5-4.4,8.5-7.3C52.4,27.2,49.3,24.6,44.5,23
		L44.5,23L44.5,23z"/>
	<path class="st0" d="M43.4,35.4c-0.2,0.1-0.5,0.2-0.8,0.2c-0.6-1.8-1.3-3.7-2.3-5.7c0.9-1.9,1.6-3.8,2.2-5.6
		c0.5,0.1,0.9,0.3,1.3,0.4c4.1,1.4,6.7,3.5,6.7,5.2C50.5,31.7,47.8,33.9,43.4,35.4L43.4,35.4L43.4,35.4z M41.5,39
		c0.4,2.3,0.5,4.3,0.2,5.9c-0.3,1.4-0.8,2.4-1.5,2.8c-1.4,0.8-4.4-0.2-7.7-3c-0.4-0.3-0.7-0.7-1.1-1c1.3-1.4,2.5-3,3.8-4.8
		c2.2-0.2,4.2-0.5,6.1-0.9C41.4,38.3,41.4,38.7,41.5,39L41.5,39L41.5,39z M22.9,47.6c-1.4,0.5-2.5,0.5-3.1,0.1c-1.4-0.8-2-4-1.2-8.2
		c0.1-0.5,0.2-1,0.3-1.5c1.8,0.4,3.9,0.7,6,0.9c1.2,1.7,2.5,3.3,3.8,4.7c-0.3,0.3-0.6,0.5-0.9,0.8C26.2,45.9,24.5,47,22.9,47.6
		L22.9,47.6L22.9,47.6z M16.5,35.4c-2.2-0.7-4-1.7-5.2-2.8c-1.1-1-1.7-1.9-1.7-2.7c0-1.6,2.4-3.7,6.5-5.1c0.5-0.2,1-0.3,1.5-0.5
		c0.6,1.8,1.3,3.7,2.2,5.7c-0.9,2-1.6,3.9-2.2,5.7C17.2,35.6,16.8,35.5,16.5,35.4L16.5,35.4L16.5,35.4z M18.6,20.6
		c-0.8-4.3-0.3-7.5,1.1-8.4c1.5-0.9,4.8,0.4,8.3,3.5c0.2,0.2,0.4,0.4,0.7,0.6c-1.3,1.4-2.6,3-3.8,4.7c-2.1,0.2-4.1,0.5-6,0.9
		C18.8,21.6,18.7,21.1,18.6,20.6L18.6,20.6L18.6,20.6z M37.9,25.4c-0.4-0.8-0.9-1.5-1.4-2.2c1.4,0.2,2.8,0.4,4.1,0.7
		c-0.4,1.2-0.9,2.5-1.4,3.9C38.8,27,38.4,26.2,37.9,25.4L37.9,25.4L37.9,25.4z M30.1,17.7c0.9,1,1.8,2,2.6,3.2
		c-0.9,0-1.8-0.1-2.7-0.1c-0.9,0-1.8,0-2.6,0.1C28.3,19.8,29.2,18.7,30.1,17.7L30.1,17.7L30.1,17.7z M22.1,25.4
		c-0.4,0.8-0.9,1.5-1.3,2.3c-0.6-1.3-1-2.6-1.4-3.9c1.3-0.3,2.6-0.5,4.1-0.7C23.1,23.9,22.6,24.7,22.1,25.4L22.1,25.4L22.1,25.4z
		 M23.6,36.8c-1.5-0.2-2.8-0.4-4.1-0.7c0.4-1.3,0.9-2.6,1.5-4c0.4,0.8,0.8,1.5,1.3,2.3h0C22.6,35.3,23.1,36.1,23.6,36.8L23.6,36.8
		L23.6,36.8z M30.1,42.3c-0.9-1-1.8-2.1-2.7-3.2c0.9,0,1.7,0.1,2.6,0.1c0.9,0,1.8,0,2.7-0.1C31.9,40.2,31,41.3,30.1,42.3L30.1,42.3
		L30.1,42.3z M39.2,32.2c0.6,1.4,1.1,2.7,1.5,3.9c-1.3,0.3-2.7,0.5-4.2,0.7c0.5-0.7,0.9-1.5,1.4-2.3C38.4,33.7,38.8,33,39.2,32.2
		L39.2,32.2L39.2,32.2z M36.3,33.6c-0.7,1.2-1.4,2.4-2.1,3.5c-1.3,0.1-2.7,0.1-4.1,0.1c-1.4,0-2.7,0-4.1-0.1
		c-0.8-1.1-1.5-2.3-2.2-3.5h0c-0.7-1.2-1.3-2.4-1.9-3.6c0.6-1.2,1.2-2.4,1.9-3.6l0,0c0.7-1.2,1.4-2.4,2.2-3.5
		c1.3-0.1,2.7-0.2,4.1-0.2h0c1.4,0,2.8,0.1,4.1,0.2c0.7,1.1,1.5,2.2,2.2,3.4c0.7,1.2,1.3,2.4,1.9,3.6C37.6,31.2,37,32.4,36.3,33.6
		L36.3,33.6L36.3,33.6z M40.2,12.2c1.5,0.9,2.1,4.3,1.1,8.9c-0.1,0.3-0.1,0.6-0.2,0.9c-1.9-0.4-3.9-0.7-6-0.9
		c-1.2-1.8-2.5-3.3-3.8-4.7c0.3-0.3,0.7-0.6,1-0.9C35.7,12.6,38.8,11.4,40.2,12.2L40.2,12.2L40.2,12.2z"/>
	<path class="st1" d="M30,25.9c2.2,0,4,1.8,4,4c0,2.2-1.8,4-4,4s-4-1.8-4-4C26.1,27.7,27.8,25.9,30,25.9"/>
</g>
</svg>
