<?xml version="1.0" encoding="utf-8"?>
<!-- Generator: Adobe Illustrator 24.1.0, SVG Export Plug-In . SVG Version: 6.00 Build 0)  -->
<svg version="1.1" id="Layer_1" xmlns="http://www.w3.org/2000/svg" xmlns:xlink="http://www.w3.org/1999/xlink" x="0px" y="0px"
	 viewBox="0 0 60 60" style="enable-background:new 0 0 60 60;" xml:space="preserve">
<style type="text/css">
	.st0{fill:#912626;}
	.st1{fill:#C6302B;}
	.st2{fill:#FFFFFF;}
	.st3{fill:#621B1C;}
	.st4{fill:#9A2928;}
</style>
<g>
	<path class="st0" d="M47.3,38.7c-2,1-12.4,5.3-14.6,6.5c-2.2,1.2-3.4,1.1-5.2,0.3c-1.7-0.8-12.8-5.3-14.8-6.2
		c-1-0.5-1.5-0.9-1.5-1.3v-3.8c0,0,14.4-3.1,16.7-4c2.3-0.8,3.1-0.9,5.1-0.1c2,0.7,13.8,2.9,15.7,3.6c0,0,0,3.4,0,3.7
		C48.8,37.7,48.3,38.1,47.3,38.7"/>
	<path class="st1" d="M47.3,34.9c-2,1-12.4,5.3-14.6,6.5c-2.2,1.2-3.4,1.1-5.2,0.3c-1.7-0.8-12.8-5.3-14.8-6.2c-2-1-2-1.6-0.1-2.4
		c2-0.8,12.9-5.1,15.3-5.9c2.3-0.8,3.1-0.9,5.1-0.1c2,0.7,12.3,4.8,14.2,5.5C49.2,33.3,49.3,33.8,47.3,34.9"/>
	<path class="st0" d="M47.3,32.5c-2,1-12.4,5.3-14.6,6.5c-2.2,1.2-3.4,1.1-5.2,0.3C25.8,38.5,14.7,34,12.7,33
		c-1-0.5-1.5-0.9-1.5-1.3V28c0,0,14.4-3.1,16.7-4c2.3-0.8,3.1-0.9,5.1-0.1c2,0.7,13.8,2.9,15.7,3.6c0,0,0,3.4,0,3.7
		C48.8,31.6,48.3,32,47.3,32.5"/>
	<path class="st1" d="M47.3,28.7c-2,1-12.4,5.3-14.6,6.5c-2.2,1.2-3.4,1.1-5.2,0.3c-1.7-0.8-12.8-5.3-14.8-6.2c-2-1-2-1.6-0.1-2.4
		c2-0.8,12.9-5.1,15.3-5.9c2.3-0.8,3.1-0.9,5.1-0.1c2,0.7,12.3,4.8,14.2,5.5C49.2,27.1,49.3,27.7,47.3,28.7L47.3,28.7"/>
	<path class="st0" d="M47.3,26.2c-2,1-12.4,5.3-14.6,6.5c-2.2,1.2-3.4,1.1-5.2,0.3c-1.7-0.8-12.8-5.3-14.8-6.2
		c-1-0.5-1.5-0.9-1.5-1.3v-3.8c0,0,14.4-3.1,16.7-4c2.3-0.8,3.1-0.9,5.1-0.1c2,0.7,13.8,2.9,15.7,3.6c0,0,0,3.4,0,3.7
		C48.8,25.2,48.3,25.6,47.3,26.2"/>
	<path class="st1" d="M47.3,22.4c-2,1-12.4,5.3-14.6,6.5c-2.2,1.2-3.4,1.1-5.2,0.3s-12.8-5.3-14.8-6.2s-2-1.6-0.1-2.4
		c2-0.8,12.9-5.1,15.3-5.9c2.3-0.8,3.1-0.9,5.1-0.1c2,0.7,12.3,4.8,14.2,5.5C49.2,20.7,49.3,21.3,47.3,22.4"/>
	<path class="st2" d="M34.6,18.7L31.4,19l-0.7,1.7l-1.2-1.9l-3.7-0.3l2.8-1l-0.8-1.5l2.6,1l2.5-0.8l-0.7,1.6L34.6,18.7"/>
	<path class="st2" d="M30.4,27.1l-6-2.5l8.6-1.3L30.4,27.1"/>
	<path class="st2" d="M22.1,19.7c2.5,0,4.6,0.8,4.6,1.8c0,1-2.1,1.8-4.6,1.8c-2.5,0-4.6-0.8-4.6-1.8C17.5,20.5,19.5,19.7,22.1,19.7"
		/>
	<path class="st3" d="M38.4,19.2l5.1,2l-5.1,2L38.4,19.2"/>
	<path class="st4" d="M32.8,21.4l5.7-2.2l0,4l-0.6,0.2L32.8,21.4"/>
</g>
</svg>
