<?xml version="1.0" encoding="utf-8"?>
<!-- Generator: Adobe Illustrator 24.1.0, SVG Export Plug-In . SVG Version: 6.00 Build 0)  -->
<svg version="1.1" id="Layer_1" xmlns="http://www.w3.org/2000/svg" xmlns:xlink="http://www.w3.org/1999/xlink" x="0px" y="0px"
	 viewBox="0 0 60 60" style="enable-background:new 0 0 60 60;" xml:space="preserve">
<style type="text/css">
	.st0{fill:#007ACC;}
	.st1{fill:#FFFFFF;}
</style>
<g>
	<polygon class="st0" points="13.2,30 13.2,46.8 30,46.8 46.8,46.8 46.8,30 46.8,13.2 30,13.2 13.2,13.2 	"/>
	<path class="st1" d="M20.6,30.1l0,1.4h2.2H25v6.2v6.2h1.5h1.5v-6.2v-6.2h2.2h2.2v-1.3c0-0.7,0-1.4,0-1.4c0,0-2.7,0-5.9,0l-5.9,0
		L20.6,30.1z"/>
	<path class="st1" d="M40.3,28.7c0.9,0.2,1.5,0.6,2.1,1.2c0.3,0.3,0.8,0.9,0.8,1.1c0,0-1.4,1-2.3,1.6c0,0-0.2-0.1-0.3-0.3
		c-0.4-0.6-0.9-0.9-1.6-0.9c-1-0.1-1.7,0.5-1.7,1.4c0,0.3,0,0.4,0.1,0.6c0.2,0.5,0.6,0.7,1.9,1.3c2.4,1,3.4,1.7,4.1,2.7
		c0.7,1.1,0.9,2.8,0.4,4.1c-0.5,1.4-1.9,2.3-3.7,2.7c-0.6,0.1-1.9,0.1-2.6,0c-1.3-0.2-2.6-0.9-3.4-1.8c-0.3-0.3-0.9-1.2-0.9-1.3
		c0,0,0.2-0.1,0.3-0.2c0.1-0.1,0.7-0.4,1.2-0.7l1-0.6l0.2,0.3c0.3,0.4,0.9,1,1.3,1.2c1.1,0.6,2.5,0.5,3.3-0.2c0.3-0.3,0.4-0.6,0.4-1
		c0-0.4,0-0.6-0.3-0.9c-0.3-0.4-0.8-0.7-2.3-1.3c-1.7-0.7-2.5-1.2-3.2-1.9c-0.4-0.4-0.8-1.1-0.9-1.7c-0.1-0.5-0.2-1.7-0.1-2.1
		c0.4-1.7,1.6-2.8,3.4-3.2C38.3,28.5,39.7,28.6,40.3,28.7z"/>
</g>
</svg>
