<?xml version="1.0" encoding="utf-8"?>
<!-- Generator: Adobe Illustrator 24.1.0, SVG Export Plug-In . SVG Version: 6.00 Build 0)  -->
<svg version="1.1" id="Layer_1" xmlns="http://www.w3.org/2000/svg" xmlns:xlink="http://www.w3.org/1999/xlink" x="0px" y="0px"
	 viewBox="0 0 60 60" style="enable-background:new 0 0 60 60;" xml:space="preserve">
<style type="text/css">
	.st0{fill:#FFFFFF;}
	.st1{fill:#8ED6FB;}
	.st2{fill:#1C78C0;}
</style>
<g>
	<polygon class="st0" points="30,7.5 49.9,18.7 49.9,41.3 30,52.5 10.1,41.3 10.1,18.7 	"/>
	<path class="st1" d="M46.3,40.5l-15.7,8.9v-6.9l9.8-5.4L46.3,40.5z M47.4,39.5V21l-5.7,3.3v11.9L47.4,39.5z M13.6,40.5l15.7,8.9
		v-6.9l-9.8-5.4L13.6,40.5L13.6,40.5z M12.5,39.5V21l5.7,3.3v11.9L12.5,39.5L12.5,39.5z M13.2,19.8l16.1-9.1v6.7L19,23l-0.1,0
		L13.2,19.8L13.2,19.8z M46.7,19.8l-16.1-9.1v6.7L41,23l0.1,0L46.7,19.8L46.7,19.8z"/>
	<path class="st2" d="M29.3,40.9l-9.6-5.3V25.1l9.6,5.6V40.9L29.3,40.9z M30.7,40.9l9.6-5.3V25.1l-9.6,5.6V40.9z M20.3,23.8l9.7-5.3
		l9.7,5.3L30,29.4L20.3,23.8L20.3,23.8z"/>
</g>
</svg>
