<svg width="16" height="16" viewBox="0 0 16 16" fill="none" xmlns="http://www.w3.org/2000/svg">
<g clip-path="url(#clip0)">
<path d="M4.49316 0.5H11.4932C13.7025 0.5 15.4932 2.29067 15.4932 4.5V11.5C15.4932 13.7093 13.7025 15.5 11.4932 15.5H4.49316C2.28383 15.5 0.493164 13.7093 0.493164 11.5V4.5C0.493164 2.29067 2.28383 0.5 4.49316 0.5Z" stroke="#EBEFF5" stroke-width="1.5" stroke-linecap="round" stroke-linejoin="round"/>
<path d="M7.99349 4.66663C9.83416 4.66663 11.3268 6.15929 11.3268 7.99996C11.3268 9.84063 9.83416 11.3333 7.99349 11.3333C6.15282 11.3333 4.66016 9.84063 4.66016 7.99996C4.66016 6.15929 6.15282 4.66663 7.99349 4.66663Z" stroke="#EBEFF5" stroke-width="1.5" stroke-linecap="round" stroke-linejoin="round"/>
<path d="M12.8932 3.43335C12.8932 3.61735 12.7439 3.76668 12.5599 3.76668C12.3759 3.76668 12.2266 3.61735 12.2266 3.43335" stroke="#EBEFF5" stroke-width="1.5" stroke-linecap="round" stroke-linejoin="round"/>
<path d="M12.2266 3.43331C12.2266 3.24931 12.3759 3.09998 12.5599 3.09998C12.7439 3.09998 12.8932 3.24931 12.8932 3.43331" stroke="#EBEFF5" stroke-width="1.5" stroke-linecap="round" stroke-linejoin="round"/>
</g>
<defs>
<clipPath id="clip0">
<rect width="16" height="16" fill="white"/>
</clipPath>
</defs>
</svg>
