<svg width="16" height="16" viewBox="0 0 16 16" fill="none" xmlns="http://www.w3.org/2000/svg">
<path d="M8 0.0600586C5.88863 0.0599992 3.86284 0.894613 2.36426 2.38195C0.86568 3.86929 0.0158396 5.88874 4.23543e-06 8.00006C-0.00167612 9.61569 0.496677 11.1923 1.42667 12.5134L0.526671 15.1801C0.507252 15.2386 0.504449 15.3014 0.518572 15.3614C0.532696 15.4214 0.563192 15.4763 0.606671 15.5201C0.650109 15.5641 0.704719 15.5954 0.764628 15.6106C0.824536 15.6259 0.887474 15.6246 0.946671 15.6067L3.74667 14.7201C4.95329 15.4775 6.34031 15.8991 7.76437 15.9411C9.18844 15.9831 10.5979 15.644 11.847 14.9589C13.0962 14.2739 14.1398 13.2677 14.8699 12.0443C15.6 10.8209 15.9901 9.42471 16 8.00006C15.9842 5.88874 15.1343 3.86929 13.6357 2.38195C12.1372 0.894613 10.1114 0.0599992 8 0.0600586ZM12.8 11.2067C12.5768 11.6311 12.241 11.9857 11.8293 12.2315C11.4176 12.4774 10.9461 12.6049 10.4667 12.6001C9.66794 12.5089 8.89034 12.2835 8.16667 11.9334C6.54251 11.1899 5.16581 9.99601 4.2 8.49339C2.92667 6.80672 2.86667 5.22673 4.09334 3.92006C4.25681 3.76577 4.45399 3.6517 4.66923 3.5869C4.88447 3.52209 5.11185 3.50834 5.33334 3.54673C5.50589 3.56723 5.67042 3.63121 5.8115 3.73265C5.95259 3.83409 6.06562 3.96968 6.14 4.12672L6.39334 4.74006C6.58 5.18673 6.78 5.66672 6.81334 5.74672C6.86601 5.84994 6.89347 5.96418 6.89347 6.08006C6.89347 6.19594 6.86601 6.31017 6.81334 6.41339C6.64323 6.75265 6.41794 7.0613 6.14667 7.32672C6.48915 7.84795 6.88947 8.32879 7.34 8.76006C7.87787 9.22674 8.49402 9.59462 9.16 9.84672C9.34667 9.60672 9.71334 9.18006 9.82667 9.00006C9.9156 8.85225 10.0584 8.74467 10.2249 8.69992C10.3915 8.65516 10.569 8.67672 10.72 8.76006C10.9733 8.85339 12.3933 9.54672 12.3933 9.54672C12.5737 9.60789 12.7316 9.72167 12.8467 9.87339C12.9567 10.0802 13.0103 10.3122 13.0021 10.5463C12.9939 10.7804 12.9242 11.0082 12.8 11.2067Z" fill="white"/>
</svg>
