<?xml version="1.0" encoding="UTF-8" standalone="no"?>
<svg
   xmlns:dc="http://purl.org/dc/elements/1.1/"
   xmlns:cc="http://creativecommons.org/ns#"
   xmlns:rdf="http://www.w3.org/1999/02/22-rdf-syntax-ns#"
   xmlns:svg="http://www.w3.org/2000/svg"
   xmlns="http://www.w3.org/2000/svg"
   xmlns:sodipodi="http://sodipodi.sourceforge.net/DTD/sodipodi-0.dtd"
   xmlns:inkscape="http://www.inkscape.org/namespaces/inkscape"
   version="1.1"
   id="svg2"
   xml:space="preserve"
   width="1358.2667"
   height="315.90668"
   viewBox="0 0 1358.2667 315.90668"
   sodipodi:docname="Logo eps.eps"><metadata
     id="metadata8"><rdf:RDF><cc:Work
         rdf:about=""><dc:format>image/svg+xml</dc:format><dc:type
           rdf:resource="http://purl.org/dc/dcmitype/StillImage" /></cc:Work></rdf:RDF></metadata><defs
     id="defs6" /><sodipodi:namedview
     pagecolor="#ffffff"
     bordercolor="#666666"
     borderopacity="1"
     objecttolerance="10"
     gridtolerance="10"
     guidetolerance="10"
     inkscape:pageopacity="0"
     inkscape:pageshadow="2"
     inkscape:window-width="640"
     inkscape:window-height="480"
     id="namedview4" /><g
     id="g10"
     inkscape:groupmode="layer"
     inkscape:label="ink_ext_XXXXXX"
     transform="matrix(1.3333333,0,0,-1.3333333,0,315.90667)"><g
       id="g12"
       transform="scale(0.1)"><path
         d="m 2199.79,336.879 c -4.45,-14.43 -14.5,-24.957 -27.66,-30.18 -75.29,-29.949 -150.93,-56.64 -234.13,-57 -183.3,-0.75 -360.75,112.461 -429.17,288.422 -35.68,91.789 -68.35,184.75 -102.1,277.277 -80.16,219.762 -160.14,439.602 -240.26,659.382 -5.91,16.21 -8.02,34.49 -23.7,45.68 -13.37,7.75 -17.42,21.6 -22.01,34.74 -74.16,212.21 -153.865,422.41 -229.186,634.18 -10.539,29.63 -23.015,59.43 -13.015,92.16 36.933,38.48 86.511,52.32 134.961,66.87 127.81,38.38 252.55,23.33 367.28,-40.43 97.77,-54.33 167.31,-138.23 206.1,-245.3 59.23,-163.51 118.98,-326.83 178.51,-490.24 42.08,-115.53 84.15,-231.08 126.25,-346.61 4.71,-12.93 6.46,-27.75 21.49,-34.21 32.7,-50.82 43.29,-110.41 63.9,-165.85 73.37,-197.418 144.36,-395.731 216.71,-593.551 11.18,-30.528 28.56,-62.071 6.03,-95.34"
         style="fill:#ed0c84;fill-opacity:1;fill-rule:nonzero;stroke:none"
         id="path14" /><path
         d="m 878.559,2281.54 c 9.5,-31.35 17.675,-63.17 28.726,-93.97 37.199,-103.64 75.449,-206.9 113.215,-310.33 13.79,-37.77 27.5,-75.56 40.99,-113.43 25.82,-72.47 51.59,-144.94 76.96,-217.56 2.83,-8.12 2.93,-17.19 4.31,-25.8 C 1065.97,1308.83 989.172,1097.19 912.359,885.559 843.945,697.059 775.004,508.738 707.285,319.98 665.699,204.059 594.117,113.75 484.859,55.7109 377.793,-1.16016 264.801,-15.1992 147.32,16.8594 115.176,25.6289 83.7422,37.2891 52.4844,48.9688 0.367188,68.4609 -9.96875,90.1094 8.48828,141.91 40.9727,233.039 74.1328,323.941 107.199,414.871 c 197.188,542.27 394.656,1084.419 591.43,1626.839 33.238,91.63 83.406,170.38 161.832,229.65 5.473,4.14 12.039,6.82 18.098,10.18"
         style="fill:#c11b84;fill-opacity:1;fill-rule:nonzero;stroke:none"
         id="path16" /><path
         d="m 2199.79,336.879 c 5.24,38.543 -12.43,72.269 -24.16,106.73 -18.08,53.051 -40.24,104.692 -59.34,157.411 -36.41,100.519 -71.62,201.468 -107.82,302.05 -27.3,75.852 -55.51,151.38 -82.99,227.16 -7.16,19.77 -14.4,39.71 -12.33,61.4 42.85,119.21 85.48,238.5 128.6,357.62 53.91,148.96 107.42,298.07 162.59,446.57 57.96,155.97 165.2,264.33 321.94,321.14 120.18,43.55 241.76,40.38 363.09,3.06 3.14,-0.97 5.61,-4.09 8.38,-6.2 44.54,-25.82 50.31,-62.96 33.31,-108.3 -70.73,-188.69 -138.03,-378.63 -207.31,-567.86 -5.4,-14.76 -10.21,-30.17 -26.26,-37.61 -6.96,-16.01 -14.78,-31.71 -20.75,-48.09 -128.35,-352.81 -256.56,-705.679 -384.61,-1058.601 -18.05,-49.738 -38.47,-98.121 -73.3,-138.871 -5.58,-6.527 -12.66,-11.777 -19.04,-17.609"
         style="fill:#c11b84;fill-opacity:1;fill-rule:nonzero;stroke:none"
         id="path18" /><path
         d="m 2697.49,1600.05 c 44.07,122 88.16,243.99 132.19,365.99 16.07,44.53 31.82,89.17 48.03,133.66 12.6,34.59 24.61,69.47 38.81,103.41 15.54,37.12 17.59,71.21 -13.52,101.64 -2.4,2.35 -3.52,6.02 -5.24,9.07 75.55,-20.73 134.95,-66.49 186.77,-122.85 40.94,-44.53 70.54,-96.23 91.18,-153.33 66.4,-183.67 133.4,-367.12 200.22,-550.64 71.64,-196.75 143.34,-393.48 215.01,-590.219 4.22,-11.57 9.16,-22.949 12.45,-34.769 8.8,-31.68 -1.06,-58.063 -30.57,-70.051 -61.9,-25.152 -124.4,-49.121 -192.1,-54.481 -221.13,-17.511 -409.85,116.008 -478.39,308.59 -60.17,169.07 -122.34,337.44 -183.83,506.06 -5.97,16.37 -9.1,34.11 -21.01,47.92"
         style="fill:#ed0c84;fill-opacity:1;fill-rule:nonzero;stroke:none"
         id="path20" /><path
         d="m 5238.22,1450.03 c 52.06,-51.62 78.09,-129.05 78.09,-232.29 V 812.73 h -165.44 v 383.83 c 0,61.76 -13.69,108.31 -41.03,139.64 -27.36,31.31 -66.63,46.99 -117.8,46.99 -55.59,0 -100.15,-18.32 -133.68,-54.93 -33.55,-36.63 -50.29,-88.91 -50.29,-156.84 V 812.73 h -165.45 v 383.83 c 0,61.76 -13.69,108.31 -41.03,139.64 -27.37,31.31 -66.64,46.99 -117.8,46.99 -56.48,0 -101.26,-18.1 -134.35,-54.27 -33.08,-36.19 -49.63,-88.68 -49.63,-157.5 V 812.73 h -165.44 v 706.79 h 157.5 v -90 c 26.47,31.76 59.56,56.02 99.27,72.79 39.71,16.75 83.82,25.15 132.36,25.15 52.94,0 99.93,-9.93 140.96,-29.78 41.03,-19.86 73.46,-49.2 97.28,-88.02 29.12,37.06 66.61,65.95 112.5,86.7 45.87,20.72 96.62,31.1 152.22,31.1 89.11,0 159.69,-25.81 211.76,-77.43"
         style="fill:#ffffff;fill-opacity:1;fill-rule:nonzero;stroke:none"
         id="path22" /><path
         d="m 5773.59,1348.11 c -36.62,-31.33 -58.9,-73.02 -66.84,-125.08 h 401.04 c -7.07,51.17 -28.68,92.66 -64.85,124.42 -36.2,31.76 -81.2,47.65 -135,47.65 -52.95,0 -97.75,-15.67 -134.35,-46.99 z m 489.06,-234.93 h -554.58 c 9.7,-52.07 35.08,-93.31 76.11,-123.75 41.03,-30.442 91.99,-45.66 152.88,-45.66 77.62,0 141.62,25.582 191.91,76.76 l 88.68,-101.909 c -31.77,-37.949 -71.93,-66.641 -120.45,-86.039 -48.53,-19.422 -103.23,-29.121 -164.12,-29.121 -77.65,0 -146.04,15.43 -205.15,46.328 -59.13,30.883 -104.79,73.902 -137,129.051 -32.21,55.13 -48.31,117.57 -48.31,187.28 0,68.83 15.66,130.81 46.99,185.96 31.31,55.14 74.78,98.15 130.38,129.06 55.58,30.87 118.23,46.32 187.95,46.32 68.82,0 130.37,-15.22 184.63,-45.67 54.27,-30.43 96.62,-73.25 127.06,-128.38 30.44,-55.16 45.67,-118.92 45.67,-191.25 0,-11.49 -0.89,-27.8 -2.65,-48.98"
         style="fill:#ffffff;fill-opacity:1;fill-rule:nonzero;stroke:none"
         id="path24" /><path
         d="m 6916.49,972.219 c 31.77,18.082 56.91,43.891 75.44,77.441 18.53,33.51 27.8,72.33 27.8,116.46 0,44.12 -9.27,82.93 -27.8,116.47 -18.53,33.53 -43.67,59.34 -75.44,77.44 -31.77,18.07 -67.5,27.13 -107.21,27.13 -39.7,0 -75.45,-9.06 -107.21,-27.13 -31.77,-18.1 -56.92,-43.91 -75.44,-77.44 -18.54,-33.54 -27.8,-72.35 -27.8,-116.47 0,-44.13 9.26,-82.95 27.8,-116.46 18.52,-33.55 43.67,-59.359 75.44,-77.441 31.76,-18.09 67.51,-27.137 107.21,-27.137 39.71,0 75.44,9.047 107.21,27.137 z m 266.04,822.601 V 812.73 H 7023.7 v 91.329 c -27.37,-33.547 -61.12,-58.688 -101.25,-75.45 -40.17,-16.75 -84.51,-25.148 -133.02,-25.148 -67.96,0 -129.05,15 -183.32,45 -54.27,29.988 -96.85,72.578 -127.73,127.73 -30.89,55.139 -46.32,118.469 -46.32,189.929 0,71.47 15.43,134.55 46.32,189.27 30.88,54.7 73.46,97.06 127.73,127.07 54.27,29.98 115.36,45 183.32,45 46.76,0 89.54,-7.94 128.38,-23.82 38.82,-15.89 71.91,-39.71 99.27,-71.48 v 362.66 h 165.45"
         style="fill:#ffffff;fill-opacity:1;fill-rule:nonzero;stroke:none"
         id="path26" /><path
         d="m 7465.77,1519.52 h 165.45 V 812.73 h -165.45 z m 7.94,144.93 c -20.32,18.96 -30.44,42.56 -30.44,70.81 0,28.23 10.12,51.83 30.44,70.81 20.29,18.97 45.44,28.46 75.44,28.46 29.99,0 55.13,-9.06 75.45,-27.14 20.28,-18.09 30.43,-40.82 30.43,-68.16 0,-29.12 -9.92,-53.6 -29.77,-73.46 -19.85,-19.85 -45.23,-29.78 -76.11,-29.78 -30,0 -55.15,9.47 -75.44,28.46"
         style="fill:#ffffff;fill-opacity:1;fill-rule:nonzero;stroke:none"
         id="path28" /><path
         d="m 8382.99,1005.97 c 39.71,40.58 59.56,93.98 59.56,160.15 0,66.18 -19.85,119.56 -59.56,160.16 -39.7,40.57 -90,60.88 -150.88,60.88 -60.89,0 -110.98,-20.31 -150.23,-60.88 -39.28,-40.6 -58.9,-93.98 -58.9,-160.16 0,-66.17 19.62,-119.57 58.9,-160.15 39.25,-40.591 89.34,-60.888 150.23,-60.888 60.88,0 111.18,20.297 150.88,60.888 z m 222.37,513.55 V 812.73 h -157.51 v 91.329 c -27.37,-33.547 -61.12,-58.688 -101.25,-75.45 -40.17,-16.75 -84.5,-25.148 -133.02,-25.148 -68.83,0 -130.38,15 -184.64,45 -54.27,29.988 -96.62,72.348 -127.07,127.07 -30.44,54.699 -45.66,118.239 -45.66,190.589 0,72.34 15.22,135.67 45.66,189.94 30.45,54.26 72.8,96.39 127.07,126.4 54.26,29.98 115.81,45 184.64,45 45.87,0 88.02,-7.94 126.4,-23.82 38.38,-15.89 71.68,-39.28 99.93,-70.16 v 86.04 h 165.45"
         style="fill:#ffffff;fill-opacity:1;fill-rule:nonzero;stroke:none"
         id="path30" /><path
         d="m 9313.44,851.109 c -19.41,-15.879 -43.01,-27.789 -70.81,-35.73 -27.79,-7.938 -57.14,-11.918 -88.02,-11.918 -77.65,0 -137.64,20.301 -180,60.891 -42.36,40.578 -63.53,99.699 -63.53,177.358 v 340.16 h -116.47 v 132.35 h 116.47 v 161.48 h 165.45 v -161.48 h 189.27 v -132.35 h -189.27 v -336.19 c 0,-34.41 8.37,-60.668 25.15,-78.75 16.74,-18.098 41.02,-27.141 72.79,-27.141 37.06,0 67.94,9.711 92.65,29.121 l 46.32,-117.801"
         style="fill:#ffffff;fill-opacity:1;fill-rule:nonzero;stroke:none"
         id="path32" /><path
         d="m 9960.69,1005.97 c 39.71,40.58 59.51,93.98 59.51,160.15 0,66.18 -19.8,119.56 -59.51,160.16 -39.71,40.57 -90,60.88 -150.89,60.88 -60.89,0 -110.98,-20.31 -150.22,-60.88 -39.28,-40.6 -58.9,-93.98 -58.9,-160.16 0,-66.17 19.62,-119.57 58.9,-160.15 39.24,-40.591 89.33,-60.888 150.22,-60.888 60.89,0 111.18,20.297 150.89,60.888 z M 9616.56,849.789 c -57.37,30.883 -102.14,73.902 -134.35,129.051 -32.21,55.13 -48.31,117.57 -48.31,187.28 0,69.7 16.1,131.9 48.31,186.63 32.21,54.7 76.98,97.48 134.35,128.39 57.34,30.87 121.77,46.32 193.24,46.32 72.34,0 137.2,-15.45 194.6,-46.32 57.3,-30.91 102.1,-73.69 134.3,-128.39 32.2,-54.73 48.3,-116.93 48.3,-186.63 0,-69.71 -16.1,-132.15 -48.3,-187.28 -32.2,-55.149 -77,-98.168 -134.3,-129.051 -57.4,-30.898 -122.26,-46.328 -194.6,-46.328 -71.47,0 -135.9,15.43 -193.24,46.328"
         style="fill:#ffffff;fill-opacity:1;fill-rule:nonzero;stroke:none"
         id="path34" /></g></g></svg>
