<?xml version="1.0" standalone="no"?>
<!DOCTYPE svg PUBLIC "-//W3C//DTD SVG 20010904//EN"
 "http://www.w3.org/TR/2001/REC-SVG-20010904/DTD/svg10.dtd">
<svg version="1.0" xmlns="http://www.w3.org/2000/svg"
 width="3804.000000pt" height="3804.000000pt" viewBox="0 0 3804.000000 3804.000000"
 preserveAspectRatio="xMidYMid meet">
<metadata>
Created by potrace 1.14, written by Peter Selinger 2001-2017
</metadata>
<g transform="translate(0.000000,3804.000000) scale(0.100000,-0.100000)"
fill="#000000" stroke="none">
<path d="M11900 31504 c-366 -22 -768 -90 -1136 -195 -773 -219 -1133 -386
-1436 -667 -35 -32 -98 -78 -142 -102 -150 -82 -372 -267 -608 -506 -293 -297
-511 -584 -737 -969 -105 -178 -261 -494 -346 -700 -37 -88 -296 -792 -577
-1565 -660 -1819 -3293 -9059 -5021 -13810 -1429 -3928 -1742 -4792 -1813
-5008 -101 -305 -97 -501 14 -647 92 -121 243 -207 602 -340 742 -275 1153
-383 1690 -442 219 -24 705 -24 925 1 585 64 1106 218 1650 486 503 248 888
517 1259 879 556 544 951 1176 1249 2001 31 85 193 535 361 1000 167 465 790
2182 1384 3815 593 1634 1475 4060 1958 5392 483 1333 883 2423 888 2423 18 0
96 -91 123 -142 14 -29 61 -154 103 -278 43 -124 438 -1215 879 -2425 1134
-3108 1821 -4995 2096 -5755 445 -1228 672 -1821 794 -2075 464 -959 1253
-1740 2246 -2221 868 -420 1834 -575 2755 -443 489 70 1055 237 1765 518 203
81 284 147 350 285 27 59 49 86 126 156 284 260 567 745 806 1380 30 80 293
800 583 1600 1873 5159 3540 9744 3578 9840 34 83 172 392 179 400 2 3 13 -6
23 -20 44 -57 95 -171 155 -347 35 -104 266 -744 515 -1423 671 -1833 1038
-2845 1365 -3760 149 -415 159 -442 225 -595 383 -879 1009 -1625 1805 -2150
192 -127 325 -202 560 -316 325 -157 604 -259 945 -343 358 -89 693 -133 1080
-143 655 -16 1200 80 1905 334 265 96 648 248 726 289 190 100 290 290 276
523 -6 109 -32 208 -103 396 -62 167 -163 444 -2171 5955 -778 2137 -1615
4435 -1859 5108 -244 673 -469 1285 -500 1360 -70 170 -231 491 -319 637 -203
336 -398 586 -695 889 -544 555 -1068 898 -1681 1099 -79 26 -153 57 -178 75
-43 32 -90 48 -306 106 -403 109 -858 187 -1267 216 -188 13 -597 13 -786 0
-851 -60 -1694 -319 -2467 -757 -731 -415 -1335 -976 -1800 -1673 -204 -307
-378 -629 -529 -983 -155 -362 -1321 -3566 -2916 -8013 -144 -403 -266 -737
-270 -744 -18 -29 -109 50 -149 128 -10 20 -28 69 -41 107 -22 69 -935 2577
-1936 5324 -278 761 -693 1902 -924 2535 -230 633 -436 1196 -458 1251 -490
1225 -1388 2137 -2617 2659 -468 199 -927 318 -1425 371 -139 15 -595 27 -730
19z"/>
</g>
</svg>
